HIERARCHY
ROOT root
{
	OFFSET 0.000000 0.000000 0.000000
	CHANNELS 6 Xposition Yposition Zposition Zrotation Yrotation Xrotation
	JOINT lhip
	{
		OFFSET 0.058581 -0.082280 -0.017664
		CHANNELS 3 Zrotation Yrotation Xrotation
		JOINT lknee
		{
			OFFSET 0.043451 -0.386469 0.008037
			CHANNELS 3 Zrotation Yrotation Xrotation
			JOINT lankle
			{
				OFFSET -0.014790 -0.426874 -0.037428
				CHANNELS 3 Zrotation Yrotation Xrotation
				JOINT ltoe
				{
					OFFSET 0.041054 -0.060286 0.122042
					CHANNELS 3 Zrotation Yrotation Xrotation
					End Site
					{
						OFFSET 0.000000 0.000000 0.000000
					}
				}
			}
		}
	}
	JOINT rhip
	{
		OFFSET -0.060310 -0.090513 -0.013543
		CHANNELS 3 Zrotation Yrotation Xrotation
		JOINT rknee
		{
			OFFSET -0.043257 -0.383688 -0.004843
			CHANNELS 3 Zrotation Yrotation Xrotation
			JOINT rankle
			{
				OFFSET 0.019056 -0.420046 -0.034562
				CHANNELS 3 Zrotation Yrotation Xrotation
				JOINT rtoe
				{
					OFFSET -0.034840 -0.062106 0.130323
					CHANNELS 3 Zrotation Yrotation Xrotation
					End Site
					{
						OFFSET 0.000000 0.000000 0.000000
					}
				}
			}
		}
	}
	JOINT lowerback
	{
		OFFSET 0.004439 0.124404 -0.038385
		CHANNELS 3 Zrotation Yrotation Xrotation
		JOINT upperback
		{
			OFFSET 0.004488 0.137956 0.026820
			CHANNELS 3 Zrotation Yrotation Xrotation
			JOINT chest
			{
				OFFSET -0.002265 0.056032 0.002855
				CHANNELS 3 Zrotation Yrotation Xrotation
				JOINT lowerneck
				{
					OFFSET -0.013390 0.211636 -0.033468
					CHANNELS 3 Zrotation Yrotation Xrotation
					JOINT upperneck
					{
						OFFSET 0.010113 0.088937 0.050410
						CHANNELS 3 Zrotation Yrotation Xrotation
						End Site
						{
							OFFSET 0.000000 0.000000 0.000000
						}
					}
				}
				JOINT lclavicle
				{
					OFFSET 0.071702 0.114000 -0.018898
					CHANNELS 3 Zrotation Yrotation Xrotation
					JOINT lshoulder
					{
						OFFSET 0.122921 0.045205 -0.019046
						CHANNELS 3 Zrotation Yrotation Xrotation
						JOINT lelbow
						{
							OFFSET 0.255332 -0.015649 -0.022946
							CHANNELS 3 Zrotation Yrotation Xrotation
							JOINT lwrist
							{
								OFFSET 0.265709 0.012698 -0.007375
								CHANNELS 3 Zrotation Yrotation Xrotation
								End Site
								{
									OFFSET 0.000000 0.000000 0.000000
								}
							}
						}
					}
				}
				JOINT rclavicle
				{
					OFFSET -0.082954 0.112472 -0.023707
					CHANNELS 3 Zrotation Yrotation Xrotation
					JOINT rshoulder
					{
						OFFSET -0.113228 0.046853 -0.008472
						CHANNELS 3 Zrotation Yrotation Xrotation
						JOINT relbow
						{
							OFFSET -0.260127 -0.014369 -0.031269
							CHANNELS 3 Zrotation Yrotation Xrotation
							JOINT rwrist
							{
								OFFSET -0.269108 0.006794 -0.006027
								CHANNELS 3 Zrotation Yrotation Xrotation
								End Site
								{
									OFFSET 0.000000 0.000000 0.000000
								}
							}
						}
					}
				}
			}
		}
	}
}
MOTION
Frames: 8
Frame Time: 0.033333
0.032099 -1.872114 0.981298 -92.260013 -0.575028 86.387758 1.845419 -8.476037 -31.181107 -4.054517 -0.100822 12.163631 0.440753 9.802897 5.448716 0.000000 -0.000000 0.000000 8.366859 3.421112 6.457037 3.372072 2.382941 30.098799 3.191000 -9.246948 -19.237310 0.000000 -0.000000 0.000000 -4.548118 6.707443 12.621720 3.728786 -2.432354 -3.228042 0.097372 1.701718 -0.292200 5.901041 -3.274935 9.231966 5.121727 -10.646536 15.075110 -23.302736 4.167332 1.177745 -53.193419 -5.232737 7.582963 14.697303 -17.036287 -0.240319 0.800899 -4.020942 -4.736478 22.341273 -0.267440 2.224687 49.875087 4.089581 12.750376 -10.334660 26.494882 12.080952 4.086594 3.842775 -3.872172 
-0.001429 -1.875896 0.980902 -92.304457 -0.899415 86.860156 0.850520 -8.428716 -32.099578 -4.497431 -0.772567 16.603853 0.037920 10.174707 8.285087 0.000000 -0.000000 0.000000 7.150209 2.448668 8.633344 3.280939 2.943846 29.349336 3.217687 -7.848794 -15.722420 0.000000 -0.000000 0.000000 -4.811941 6.811561 11.116869 3.855008 -2.816989 -2.608389 0.158209 1.097907 -0.891359 4.928458 -4.374345 10.661718 5.212013 -9.370901 14.864708 -23.638281 4.077488 1.531888 -53.120313 -4.743532 7.345788 14.823281 -17.048992 0.172668 -1.501055 -3.531371 -6.516229 21.738080 -0.424438 3.157585 51.145086 3.697867 12.933719 -10.984283 24.890379 11.558303 4.814106 3.477345 -4.260890 
-0.036402 -1.877953 0.983077 -92.326584 -1.135281 86.893835 0.961049 -9.445718 -31.983113 -5.174425 0.754899 20.452711 0.850114 10.579204 7.466769 0.000000 -0.000000 0.000000 6.128955 1.412482 10.959901 3.260128 3.663958 28.916944 4.709634 -6.680170 -10.915921 0.000000 -0.000000 0.000000 -5.458903 7.386953 10.411408 3.987685 -3.495193 -2.549489 0.381789 1.199215 -0.921437 5.033481 -4.876054 10.797568 5.994758 -9.901353 14.619532 -23.491687 3.918828 1.501604 -53.182748 -5.034610 7.236040 15.091244 -16.900614 -0.185615 1.466447 -3.473832 -5.894643 22.192949 -1.392692 3.014067 51.525470 2.488928 12.492529 -10.826125 23.935280 11.883408 4.197017 2.981473 -3.993236 
-0.086647 -1.881427 0.990979 -91.640753 -1.655815 86.036937 -0.453581 -10.650776 -27.533429 -6.097728 1.376507 21.339850 2.759100 10.515219 3.957307 0.000000 -0.000000 0.000000 4.838250 0.697533 12.363631 2.636779 3.198696 32.331712 7.321893 -6.426128 0.183190 0.000000 -0.000000 0.000000 -6.246827 7.134193 10.879210 4.020013 -3.705009 -2.777644 0.541562 1.139819 -0.435675 5.555069 -5.992813 10.480025 6.581193 -9.977993 14.569572 -23.333993 3.501214 1.315188 -52.932740 -6.423388 7.188644 15.197056 -17.180505 -1.130565 1.594184 -3.925997 -4.470469 22.613491 -2.376856 1.862532 52.236792 0.609888 12.713862 -10.805340 22.279007 10.940154 6.412549 2.773159 -3.132395 
-0.102357 -1.882642 0.994205 -91.530541 -1.640889 85.562918 -1.255808 -9.941044 -25.198619 -6.319080 0.386467 20.580190 3.469115 10.607013 3.029632 0.000000 -0.000000 0.000000 4.271481 0.266145 11.873213 2.914603 2.955236 34.782990 8.920349 -5.121035 5.376756 0.000000 -0.000000 0.000000 -6.073000 6.755227 11.324589 3.905026 -3.610393 -2.671144 0.594978 1.171188 -0.469343 5.262716 -6.702644 11.068559 6.984019 -9.457437 14.113614 -23.523455 3.121297 1.205478 -52.641666 -6.568892 7.047282 15.086542 -17.680652 -1.755447 2.748796 -4.130155 -3.990852 22.430110 -2.333446 1.817584 52.528436 0.198354 12.520322 -10.686538 21.752099 10.601876 6.555851 2.738086 -2.542692 
-0.132171 -1.885148 0.999876 -91.444933 -1.634396 84.584453 -2.808610 -8.049130 -20.368780 -6.442287 -1.755435 18.642494 4.431286 10.761190 1.411704 0.000000 -0.000000 0.000000 3.278226 0.213512 9.721785 2.467368 1.048274 41.366235 10.472433 -5.580059 14.304988 0.000000 -0.000000 0.000000 -5.475405 5.576442 12.454872 3.512654 -3.220707 -2.597476 0.468385 1.142201 -0.295422 4.758589 -8.137537 11.613463 7.362001 -8.487227 13.425411 -23.766824 2.548740 1.116688 -51.827860 -7.165227 6.459375 14.845696 -19.097781 -2.248946 2.647531 -4.586125 -3.124303 21.814376 -2.071508 1.248884 53.178096 -0.512163 12.524837 -10.711336 21.143257 10.183516 8.504864 2.468282 -1.291377 
-0.159575 -1.887676 1.004743 -91.512535 -1.888196 83.820892 -3.714489 -8.522375 -15.915160 -6.180595 -1.556696 16.191038 2.952095 11.282443 0.211932 0.000000 -0.000000 0.000000 3.099189 3.318731 5.461381 -0.049509 -3.493989 49.889010 10.753045 -9.186356 18.910530 0.000000 -0.000000 0.000000 -5.523973 4.256238 13.975843 3.171448 -2.558472 -2.742951 0.918933 1.171330 -0.657965 4.015898 -10.075555 13.358266 7.372795 -6.860606 11.876892 -23.597485 0.629953 1.954520 -52.154259 -7.593924 4.783184 16.239854 -19.920549 -6.534072 1.391799 -5.520646 2.166768 20.622197 -0.880064 0.566976 53.746759 -2.581190 12.226157 -10.262546 22.036908 8.377006 6.121921 1.370567 0.785425 
-0.183212 -1.885724 1.008127 -92.317919 -0.901252 83.712587 -2.884842 -5.974687 -13.445222 -6.423358 -3.165543 15.725000 2.943776 10.997098 -1.437761 0.000000 -0.000000 0.000000 -1.680717 -0.923092 -0.323447 -0.110891 -7.905853 56.929189 12.247715 -7.311224 17.569266 0.000000 -0.000000 0.000000 -4.379549 3.479235 14.896554 3.010565 -2.392172 -2.451059 1.042362 1.057962 -1.101213 4.320398 -9.731620 13.199792 7.216655 -7.096163 11.627426 -23.463653 -0.424012 2.019555 -51.616308 -7.861254 4.102224 16.702183 -21.198521 -5.861330 2.064657 -5.669898 2.119000 20.821158 -0.024626 0.991996 53.125385 -2.465461 10.498939 -9.991529 22.882033 8.820918 5.932809 1.856139 1.331927 
